<svg xmlns="http://www.w3.org/2000/svg" xmlns:xlink="http://www.w3.org/1999/xlink" width="500" zoomAndPan="magnify" viewBox="0 0 375 374.999991" height="500" preserveAspectRatio="xMidYMid meet" version="1.2"><defs/><g id="e24dc86355"><rect x="0" width="375" y="0" height="374.999991" style="fill:#ffffff;fill-opacity:1;stroke:none;"/><rect x="0" width="375" y="0" height="374.999991" style="fill:#000000;fill-opacity:1;stroke:none;"/><g style="fill:#ffffff;fill-opacity:1;"><g transform="translate(157.85812, 267.133319)"><path style="stroke:none" d="M 150.546875 27 C 146.097656 28.164062 142.148438 28.75 138.703125 28.75 C 135.265625 28.75 132.222656 28.535156 129.578125 28.109375 C 126.929688 27.679688 124.097656 26.859375 121.078125 25.640625 C 118.066406 24.421875 115.234375 23.019531 112.578125 21.4375 C 109.929688 19.851562 107.285156 17.894531 104.640625 15.5625 C 99.773438 11.644531 95.359375 7.410156 91.390625 2.859375 C 87.421875 -1.691406 79.769531 -10.238281 68.4375 -22.78125 C 57.113281 -35.332031 49.597656 -43.671875 45.890625 -47.796875 C 42.179688 -51.921875 39.320312 -54.09375 37.3125 -54.3125 L 37.3125 -55.890625 C 43.457031 -55.890625 47.5625 -56.019531 49.625 -56.28125 C 51.6875 -56.550781 53.878906 -57.03125 56.203125 -57.71875 C 58.535156 -58.40625 60.5 -59.332031 62.09375 -60.5 C 68.332031 -64.519531 71.453125 -71.191406 71.453125 -80.515625 C 71.453125 -88.242188 69.734375 -94.4375 66.296875 -99.09375 C 62.859375 -103.75 58.015625 -106.128906 51.765625 -106.234375 L 32.078125 -106.234375 L 32.078125 -11.59375 C 32.078125 -8.945312 33.054688 -6.617188 35.015625 -4.609375 C 36.972656 -2.597656 39.378906 -1.59375 42.234375 -1.59375 L 44.140625 -1.59375 L 44.296875 0 L 9.53125 0 L 9.53125 -1.59375 L 11.59375 -1.59375 C 14.238281 -1.59375 16.566406 -2.539062 18.578125 -4.4375 C 20.585938 -6.34375 21.644531 -8.675781 21.75 -11.4375 L 21.75 -99.5625 C 21.644531 -102.3125 20.613281 -104.664062 18.65625 -106.625 C 16.695312 -108.582031 14.34375 -109.5625 11.59375 -109.5625 L 9.53125 -109.5625 L 9.53125 -111.15625 L 52.40625 -111.15625 C 61.71875 -111.15625 69.207031 -108.535156 74.875 -103.296875 C 80.539062 -98.054688 83.375 -91.117188 83.375 -82.484375 C 83.375 -73.859375 80.78125 -66.445312 75.59375 -60.25 C 70.40625 -54.0625 64.050781 -50.96875 56.53125 -50.96875 C 56.53125 -50.96875 56.476562 -50.96875 56.375 -50.96875 C 59.96875 -47.15625 64.039062 -42.710938 68.59375 -37.640625 C 86.914062 -17.410156 98.671875 -4.707031 103.859375 0.46875 C 109.046875 5.65625 113.625 9.914062 117.59375 13.25 C 121.5625 16.59375 125.082031 19.054688 128.15625 20.640625 C 134.394531 24.023438 140.585938 25.71875 146.734375 25.71875 C 148.003906 25.71875 149.273438 25.613281 150.546875 25.40625 Z M 150.546875 27 "/></g></g><g style="fill:#ffffff;fill-opacity:1;"><g transform="translate(97.130558, 235.88332)"><path style="stroke:none" d="M 18.890625 -116.5625 C 25.773438 -119.414062 32.394531 -120.84375 38.75 -120.84375 C 44.039062 -120.84375 49.488281 -118.882812 55.09375 -114.96875 C 58.164062 -112.851562 61.609375 -108.722656 65.421875 -102.578125 C 67.960938 -98.347656 71.191406 -90.675781 75.109375 -79.5625 L 94.484375 -24.609375 C 98.929688 -12.328125 103.457031 -2.5625 108.0625 4.6875 C 112.664062 11.9375 116.875 17.382812 120.6875 21.03125 C 124.5 24.6875 128.46875 27.253906 132.59375 28.734375 C 136.71875 30.222656 140.128906 30.96875 142.828125 30.96875 C 145.535156 30.96875 147.945312 30.753906 150.0625 30.328125 L 150.21875 31.921875 C 145.132812 33.609375 140.15625 34.453125 135.28125 34.453125 C 130.414062 34.453125 125.546875 33.207031 120.671875 30.71875 C 115.804688 28.238281 111.257812 24.773438 107.03125 20.328125 C 97.925781 11.117188 90.195312 -2.90625 83.84375 -21.75 L 77.65625 -39.859375 L 34.140625 -39.859375 L 23.1875 -11.59375 C 22.65625 -10.320312 22.390625 -9.050781 22.390625 -7.78125 C 22.390625 -6.507812 22.941406 -5.160156 24.046875 -3.734375 C 25.160156 -2.304688 26.882812 -1.59375 29.21875 -1.59375 L 30.484375 -1.59375 L 30.484375 0 L -1.4375 0 L -1.4375 -1.59375 L 0 -1.59375 C 2.539062 -1.59375 5.023438 -2.359375 7.453125 -3.890625 C 9.890625 -5.421875 11.90625 -7.722656 13.5 -10.796875 L 52.875 -105.125 C 47.15625 -113.269531 40.0625 -117.34375 31.59375 -117.34375 C 27.78125 -117.34375 23.707031 -116.550781 19.375 -114.96875 Z M 35.890625 -44.625 L 76.0625 -44.625 L 63.515625 -81.625 C 61.078125 -88.71875 58.851562 -94.273438 56.84375 -98.296875 Z M 35.890625 -44.625 "/></g></g></g></svg>